<?xml version="1.0" encoding="UTF-8"?>
<svg version="1.1" xmlns="http://www.w3.org/2000/svg" width="1080" height="1080">
<path d="M0 0 C352.63636364 0 352.63636364 0 417 36 C417 36.66 417 37.32 417 38 C417.83402344 38.22042969 418.66804688 38.44085938 419.52734375 38.66796875 C423.77130513 40.29585495 426.95719154 42.58953383 430.5625 45.3125 C431.20896484 45.78623047 431.85542969 46.25996094 432.52148438 46.74804688 C436.33097075 49.58094061 439.69166503 52.58008543 443 56 C444.48869524 57.34594364 445.98831124 58.67993376 447.5 60 C452.44361354 64.37698674 456.59252883 68.32088138 460 74 C460.75667969 74.74378906 461.51335937 75.48757813 462.29296875 76.25390625 C465.12143841 79.12319076 467.49529231 82.15744698 469.8125 85.4375 C470.24409424 86.04658203 470.67568848 86.65566406 471.12036133 87.28320312 C481.15325037 101.67347553 489.05129773 117.52524512 495 134 C495.51095668 135.3557562 496.02271406 136.71121084 496.53515625 138.06640625 C499.70674832 146.5791658 502.09021985 154.8963859 503.6171875 163.87841797 C504.04034717 166.22360774 504.53258305 168.548632 505.03125 170.87890625 C508.08101859 185.57547175 508.80295419 200.01694008 509 215 C509.02832292 216.38932954 509.05691232 217.77865371 509.0859375 219.16796875 C509.12678487 222.78296089 509.07500408 226.38551769 509 230 C508.99274902 230.87205078 508.98549805 231.74410156 508.97802734 232.64257812 C508.82724534 248.00700868 507.00744173 262.3680263 503.59472656 277.34326172 C503.0825233 279.63135529 502.6140337 281.91880688 502.1796875 284.22265625 C500.84060489 291.17203324 498.84350192 297.50541835 496.1796875 304.0625 C495.21364509 306.46800958 494.38431816 308.83768525 493.625 311.3125 C492.19330433 315.71394154 490.39466414 319.94117319 488.5625 324.1875 C488.1296167 325.20420776 488.1296167 325.20420776 487.68798828 326.24145508 C485.83080493 330.47968274 483.64475181 334.18277725 481 338 C480.16719909 339.44683621 479.3524942 340.90435336 478.5625 342.375 C476.86092656 345.46829246 475.13295109 348.53733863 473.3125 351.5625 C472.91675781 352.22378906 472.52101563 352.88507813 472.11328125 353.56640625 C471.56220703 354.27603516 471.56220703 354.27603516 471 355 C470.34 355 469.68 355 469 355 C468.67708984 356.02867187 468.67708984 356.02867187 468.34765625 357.078125 C466.59892666 360.8695735 464.18359104 363.63510082 461.4375 366.75 C460.89810791 367.36834717 460.35871582 367.98669434 459.80297852 368.6237793 C452.18032059 377.29066791 444.06502954 384.85164559 435 392 C433.4840625 393.22396484 433.4840625 393.22396484 431.9375 394.47265625 C417.24883226 406.20178571 400.63086155 415.47111652 383 422 C382.19949219 422.30292969 381.39898438 422.60585938 380.57421875 422.91796875 C377.72643883 423.97670332 374.86675917 424.99369491 372 426 C371.00105713 426.35263916 371.00105713 426.35263916 369.98193359 426.71240234 C360.07740289 430.18771503 350.3373396 433.0735915 340 435 C338.40854859 435.33056351 336.81742499 435.66270757 335.2265625 435.99609375 C309.35435255 441.25131139 283.15414445 441.29821274 256.87160587 441.20278788 C252.74243446 441.19002486 248.61325792 441.1890904 244.48406982 441.18673706 C236.71471119 441.18059556 228.94541089 441.16428747 221.1760776 441.14403808 C212.30982533 441.12144644 203.44356981 441.11062804 194.57729578 441.10064721 C176.38483115 441.07991192 158.19242032 441.04488365 140 441 C140.00368717 442.11060854 140.00737434 443.22121708 140.01117325 444.36548042 C140.10008681 471.42550181 140.16575772 498.48550419 140.20724869 525.54564095 C140.22784822 538.63187995 140.255919 551.71802228 140.30175781 564.80419922 C140.34170536 576.21399244 140.36745176 587.62371563 140.37635398 599.03357685 C140.38155528 605.07149547 140.39372598 611.10921378 140.42292023 617.14706802 C140.45021437 622.83844536 140.45841677 628.52954121 140.45243073 634.22097778 C140.45352472 636.30176197 140.46139458 638.38255626 140.4768219 640.46328354 C140.67023009 667.91171838 140.67023009 667.91171838 132.4375 677.6875 C131.31481032 678.81519053 130.17041013 679.92191921 129 681 C128.55527344 681.51949219 128.11054688 682.03898438 127.65234375 682.57421875 C125.35054661 684.56040304 123.01222714 685.21059141 120.125 686.125 C119.09632813 686.45757813 118.06765625 686.79015625 117.0078125 687.1328125 C104.51509209 690.73460981 90.89451266 689.85759627 79.10546875 684.265625 C72.94458294 680.56223538 68.27414414 674.94590387 66.06275463 668.09743977 C64.31387799 660.54879117 63.5797501 653.52021004 63.65942383 645.78393555 C63.65898575 644.64086945 63.65854767 643.49780334 63.65809631 642.32009888 C63.66016401 638.59212351 63.6833992 634.86461424 63.70703125 631.13671875 C63.71263439 628.53213242 63.71690109 625.92754291 63.71989441 623.32295227 C63.72916087 617.19988604 63.75370011 611.0769835 63.78394288 604.95398885 C63.81765673 597.97439963 63.83401526 590.99480196 63.84902918 584.01515138 C63.88025564 569.67666574 63.93519868 555.33837229 64 541 C53.44 541 42.88 541 32 541 C32.04042608 556.90870733 32.09739285 572.81708613 32.18390274 588.72559452 C32.22355945 596.11369713 32.25601929 603.5016953 32.27099609 610.88989258 C32.28408251 617.33624423 32.3112229 623.78236475 32.35461307 630.22858614 C32.37707257 633.63570993 32.39292016 637.04255034 32.39188385 640.44975471 C32.40481734 661.15469956 33.39334846 678.84094651 46 696 C46 696.66 46 697.32 46 698 C47.32 698.66 48.64 699.32 50 700 C50 700.66 50 701.32 50 702 C33.5 702 17 702 0 702 C0 470.34 0 238.68 0 0 Z M44.5 60.875 C37.38575519 70.47405381 35.0537294 81.5134468 36.37109375 93.328125 C38.69497714 105.51047023 45.04583607 114.7071924 55 122 C64.43969432 128.01043037 75.60117073 130.71709398 86.63671875 128.4609375 C98.72011108 125.09313137 109.47874158 118.99784675 116 108 C121.22737918 96.33385906 123.21525683 84.61802767 118.90625 72.26953125 C118.6071875 71.52058594 118.308125 70.77164063 118 70 C117.7215625 69.30261719 117.443125 68.60523438 117.15625 67.88671875 C112.80364198 58.22467939 105.39618394 51.69188577 96 47 C76.21842153 39.70796715 58.14575416 45.03076322 44.5 60.875 Z M283 114 C283.40820627 115.3359478 283.82719107 116.66860168 284.25 118 C284.48203125 118.7425 284.7140625 119.485 284.953125 120.25 C285.82385087 122.53727991 286.78575472 124.59625203 287.90234375 126.765625 C299.84426972 150.26549218 304.72115728 178.00953153 307 204 C307.10368896 205.07048584 307.10368896 205.07048584 307.20947266 206.16259766 C309.16295819 226.42421142 308.06619637 246.8003796 306 267 C305.89816406 268.00659668 305.79632812 269.01319336 305.69140625 270.05029297 C304.38761625 282.44635812 302.2296556 294.14214717 298.58007812 306.05761719 C297.71500347 308.95430658 296.97806859 311.87881187 296.25 314.8125 C296.02828125 315.70582031 295.8065625 316.59914063 295.578125 317.51953125 C294.99899206 320.00432463 294.48563254 322.49539514 294 325 C315.37299217 322.57625862 334.51070422 309.57672265 348.03295898 293.36157227 C368.04303967 268.15902645 370.79355591 231.39486541 367.50390625 200.40625 C366.90112119 195.88286368 366.04125044 191.44171201 365 187 C364.83371094 186.28102539 364.66742187 185.56205078 364.49609375 184.82128906 C360.8615615 169.73798022 354.02937889 150.35442587 341 141 C339.33333333 139.33333333 337.66666667 137.66666667 336 136 C327.08598883 127.93494228 317.27345833 122.99206018 306 119 C305.2059375 118.65839844 304.411875 118.31679688 303.59375 117.96484375 C300.25643203 116.72340167 296.86117284 116.04227527 293.375 115.375 C292.70726562 115.2409375 292.03953125 115.106875 291.3515625 114.96875 C288.51378236 114.41254509 285.89933398 114 283 114 Z " fill="#FE5C00" transform="translate(310,211)"/>
<path d="M0 0 C100.25054585 0 100.25054585 0 114.1796875 12.9140625 C123.34739081 23.41954226 124.88037177 35.60938006 124.1953125 48.95947266 C123.78566649 53.23924939 122.29654539 56.43317795 120 60 C119.5875 60.75410156 119.175 61.50820313 118.75 62.28515625 C115.45159677 67.89806402 111.55229032 71.12613034 106.07421875 74.58984375 C103.87874916 75.83563269 103.87874916 75.83563269 103 78 C104.8871875 78.2784375 104.8871875 78.2784375 106.8125 78.5625 C116.23556353 80.71083995 123.58534073 86.528025 129.27734375 94.18359375 C133.47687463 101.04949344 136.53392329 108.92133697 137 117 C137.05800781 117.98806641 137.05800781 117.98806641 137.1171875 118.99609375 C137.57808029 133.36058586 133.55165647 146.82671925 124.16796875 157.8125 C112.78173363 169.30131381 98.91104503 170.72699357 83 173 C55.61 173 28.22 173 0 173 C0 115.91 0 58.82 0 0 Z M36 27 C36 40.53 36 54.06 36 68 C42.249375 68.0825 48.49875 68.165 54.9375 68.25 C56.89163818 68.28641602 58.84577637 68.32283203 60.85913086 68.36035156 C62.43602404 68.37205158 64.01292946 68.38224028 65.58984375 68.390625 C66.78389832 68.4213208 66.78389832 68.4213208 68.0020752 68.45263672 C75.40177934 68.45716046 81.20315259 66.21417087 87 61.625 C91.26498566 55.85472529 90.39713874 46.77997119 89.4375 40.0625 C87.12389996 35.13352601 84.87848045 31.18200923 79.64501953 29.03295898 C70.4446589 26.62024288 61.68187363 26.65785669 52.25 26.8125 C46.8875 26.874375 41.525 26.93625 36 27 Z M36 95 C36 111.17 36 127.34 36 144 C46.6115625 144.061875 46.6115625 144.061875 57.4375 144.125 C59.65267334 144.14320801 61.86784668 144.16141602 64.15014648 144.18017578 C65.93212645 144.1860243 67.71410912 144.191119 69.49609375 144.1953125 C70.85208679 144.2106604 70.85208679 144.2106604 72.23547363 144.22631836 C81.35160552 144.22878785 88.62225914 143.41406024 95.33984375 136.91015625 C100.2391654 131.27305439 101.16929719 124.24990298 101 117 C99.97063242 111.07900962 98.07216526 105.48982324 94 101 C88.09712469 97.37352569 82.48225784 94.86643029 75.50683594 94.88647461 C74.61399902 94.88659546 73.72116211 94.88671631 72.80126953 94.88684082 C71.87169434 94.89195679 70.94211914 94.89707275 69.984375 94.90234375 C68.69297607 94.90385437 68.69297607 94.90385437 67.37548828 94.90539551 C64.16697859 94.91061788 60.95848792 94.92457915 57.75 94.9375 C46.98375 94.9684375 46.98375 94.9684375 36 95 Z " fill="#FE5C01" transform="translate(477,746)"/>
<path d="M0 0 C40.26 0 80.52 0 122 0 C122 33 122 33 115 42 C114.505 42.99 114.505 42.99 114 44 C113.34 44 112.68 44 112 44 C111.73703125 44.57234375 111.4740625 45.1446875 111.203125 45.734375 C109.9232977 48.14443939 108.45195352 50.11872488 106.75 52.25 C104.42879176 55.18762869 102.12332851 58.13111178 99.875 61.125 C99.39289063 61.76695312 98.91078125 62.40890625 98.4140625 63.0703125 C96.98490295 65.02060205 95.61869163 67.00699289 94.25 69 C93.5075 69.99 92.765 70.98 92 72 C91.34 72 90.68 72 90 72 C89.72309326 72.58628174 89.44618652 73.17256348 89.16088867 73.77661133 C88.05804796 75.88882381 86.86058194 77.67672905 85.42578125 79.57421875 C84.92626953 80.23760254 84.42675781 80.90098633 83.91210938 81.58447266 C83.38423828 82.27847168 82.85636719 82.9724707 82.3125 83.6875 C81.77302734 84.40212402 81.23355469 85.11674805 80.67773438 85.85302734 C77.29528791 90.32471902 73.86718072 94.75808721 70.39453125 99.16015625 C69.06508077 100.91413714 67.86692339 102.70544426 66.6875 104.5625 C66.130625 105.366875 65.57375 106.17125 65 107 C64.34 107 63.68 107 63 107 C62.73703125 107.57234375 62.4740625 108.1446875 62.203125 108.734375 C60.9232977 111.14443939 59.45195352 113.11872488 57.75 115.25 C55.42879176 118.18762869 53.12332851 121.13111178 50.875 124.125 C50.39289062 124.76695312 49.91078125 125.40890625 49.4140625 126.0703125 C47.98490295 128.02060205 46.61869163 130.00699289 45.25 132 C44.5075 132.99 43.765 133.98 43 135 C42.34 135 41.68 135 41 135 C40.5359375 135.928125 40.5359375 135.928125 40.0625 136.875 C39.375 138.25 38.6875 139.625 38 141 C66.05 141.33 94.1 141.66 123 142 C123 152.23 123 162.46 123 173 C81.09 173 39.18 173 -4 173 C-4 140.89120714 -4 140.89120714 8.4375 125.0625 C9.14072388 124.16700439 9.14072388 124.16700439 9.8581543 123.25341797 C12.65651621 119.69447074 15.47497861 116.15287621 18.3125 112.625 C21.11784763 109.12971932 23.83782748 105.58470105 26.51171875 101.98828125 C30.58252984 96.54984859 34.80631192 91.23138727 39.0625 85.9375 C41.95010433 82.33910076 44.75648473 78.69532596 47.5078125 74.9921875 C50.28385512 71.28595259 53.15027199 67.64965166 56 64 C56.5671875 63.2678125 57.134375 62.535625 57.71875 61.78125 C60.79907014 57.80483673 63.91006944 53.85706195 67.0625 49.9375 C70.4695034 45.69195119 73.76177088 41.37495262 77 37 C77.52980469 36.32710937 78.05960938 35.65421875 78.60546875 34.9609375 C80.17862847 32.95094984 80.17862847 32.95094984 81 30 C54.27 30 27.54 30 0 30 C0 20.1 0 10.2 0 0 Z " fill="#FE5C01" transform="translate(626,746)"/>
<path d="M0 0 C0.69480469 0.2784375 1.38960937 0.556875 2.10546875 0.84375 C8.32144377 3.6331237 14.35706895 7.78259336 17.5 13.9375 C17.665 14.618125 17.83 15.29875 18 16 C18.66 16 19.32 16 20 16 C22.89481816 19.91294318 24.0605078 24.15104977 25.1875 28.8125 C25.36474609 29.48603516 25.54199219 30.15957031 25.72460938 30.85351562 C27.68037306 38.74453127 27.2171982 45.44506203 25.125 53.25 C24.95097656 53.94351563 24.77695312 54.63703125 24.59765625 55.3515625 C23.71328687 58.7711241 22.75889445 61.92589618 21 65 C20.34 65 19.68 65 19 65 C18.731875 65.58265625 18.46375 66.1653125 18.1875 66.765625 C16.98519009 69.02786601 15.66174087 70.80576318 14 72.75 C13.484375 73.36359375 12.96875 73.9771875 12.4375 74.609375 C11 76 11 76 9 76 C9 76.66 9 77.32 9 78 C-4.66207448 84.56533818 -15.78071028 88.12225333 -31 84 C-45.2515311 78.59631004 -53.43211567 69.56015503 -60 56 C-61.45509397 51.20360245 -61.26298342 46.3464644 -61.3125 41.375 C-61.34150391 40.42753906 -61.37050781 39.48007812 -61.40039062 38.50390625 C-61.50892664 26.2977793 -56.22795962 16.46575444 -47.8515625 7.76953125 C-34.84318371 -3.74785396 -16.01720832 -6.60034162 0 0 Z " fill="#FE5C00" transform="translate(823,837)"/>
</svg>
