<?xml version="1.0" standalone="no"?>
<!DOCTYPE svg PUBLIC "-//W3C//DTD SVG 20010904//EN"
 "http://www.w3.org/TR/2001/REC-SVG-20010904/DTD/svg10.dtd">
<svg version="1.0" xmlns="http://www.w3.org/2000/svg"
 width="1080.000000pt" height="1080.000000pt" viewBox="0 0 1080.000000 1080.000000"
 preserveAspectRatio="xMidYMid meet">

<g transform="translate(0.000000,1080.000000) scale(0.100000,-0.100000)"
fill="#000000" stroke="none">
<path d="M3730 5235 l0 -2555 175 0 175 0 -39 51 c-22 29 -50 82 -63 118 -23
65 -23 72 -26 539 l-3 472 126 0 125 0 0 -439 c0 -367 2 -446 15 -482 39 -109
110 -153 251 -154 81 0 96 3 149 30 52 27 63 38 90 89 l30 60 3 807 2 807 563
5 c309 3 609 10 667 16 606 63 1066 351 1290 806 118 242 170 479 170 780 0
375 -85 684 -262 950 -73 111 -251 287 -366 363 -233 155 -518 250 -841 282
-63 6 -519 10 -1167 10 l-1064 0 0 -2555z m684 2225 c73 -28 148 -102 175
-175 77 -205 -67 -425 -280 -426 -85 -1 -134 13 -191 54 -92 65 -132 143 -132
257 0 129 61 224 179 281 75 36 166 40 249 9z m1530 -522 c261 -84 414 -275
456 -566 18 -122 8 -366 -19 -466 -63 -236 -213 -396 -438 -467 -40 -12 -75
-20 -79 -17 -3 3 6 42 20 85 39 124 66 283 78 461 24 334 -31 667 -156 937
l-35 75 42 -6 c23 -4 82 -20 131 -36z"/>
<path d="M4950 3265 l0 -625 313 0 c338 0 403 7 494 53 59 30 117 92 146 156
18 38 22 65 22 156 0 105 -2 113 -31 165 -34 61 -104 120 -165 140 -21 7 -39
18 -38 24 0 6 19 25 42 41 23 17 55 52 72 79 28 46 30 57 30 140 0 102 -17
146 -77 202 -86 82 -152 94 -520 94 l-288 0 0 -625z m579 417 c54 -27 74 -62
75 -129 0 -76 -23 -119 -77 -144 -35 -15 -66 -19 -184 -19 l-143 0 0 155 0
155 148 0 c120 0 153 -3 181 -18z m64 -496 c59 -29 81 -69 85 -153 5 -91 -20
-142 -83 -173 -37 -18 -62 -20 -218 -20 l-177 0 0 186 0 186 178 -4 c147 -3
183 -7 215 -22z"/>
<path d="M6030 3785 l0 -105 300 0 c211 0 300 -3 300 -11 0 -6 -139 -191 -310
-410 l-310 -400 0 -109 0 -110 455 0 455 0 0 105 0 105 -309 0 c-171 0 -312 3
-314 8 -2 4 137 189 309 411 l314 403 0 109 0 109 -445 0 -445 0 0 -105z"/>
<path d="M7235 3227 c-90 -37 -142 -86 -182 -175 -33 -71 -31 -193 5 -262 103
-197 369 -232 517 -68 53 59 75 120 75 208 0 87 -21 145 -74 205 -64 73 -121
99 -226 102 -50 1 -98 -3 -115 -10z"/>
</g>
</svg>
