<?xml version="1.0" encoding="UTF-8"?>
<svg version="1.1" xmlns="http://www.w3.org/2000/svg" width="1080" height="1080">
<path d="M0 0 C1.16934082 0.18433594 2.33868164 0.36867188 3.54345703 0.55859375 C55.70681464 8.94521812 105.33904992 25.42203704 153 48 C153.86334961 48.40831055 154.72669922 48.81662109 155.61621094 49.23730469 C199.78552142 70.29576939 240.40509061 98.86900072 276.5234375 131.76953125 C277.86671031 132.97932427 279.21600412 134.1831059 280.5949707 135.35205078 C286.9169052 140.74421558 292.77345577 146.58734929 298.64477539 152.45947266 C300.42510252 154.23761772 302.21328377 156.00759561 304.00195312 157.77734375 C310.04616294 163.79260706 315.76573612 169.85729611 321.03808594 176.57055664 C323.18372652 179.22750903 325.46892734 181.70437016 327.8125 184.1875 C333.58011679 190.45664868 338.57271507 197.2452863 343.60546875 204.10888672 C345.56169737 206.76171356 347.56494714 209.37821187 349.5625 212 C404.70285841 285.68576672 438.49662969 373.91550755 448.3125 608.125 C441.1119059 655.38024217 428.25140467 701.19789512 409 745 C408.58169922 745.96147949 408.16339844 746.92295898 407.73242188 747.91357422 C385.26007938 799.31691336 354.06892563 847.03859926 316.265625 888.48828125 C315.04233872 889.84444172 313.82487042 891.20649278 312.64355469 892.59936523 C307.25285881 898.91986458 301.41120679 904.77489949 295.54052734 910.64477539 C293.76238228 912.42510252 291.99240439 914.21328377 290.22265625 916.00195312 C284.16251879 922.09130663 278.03272365 927.81670893 271.30078125 933.16479492 C268.61148528 935.30989655 266.12412697 937.57536836 263.625 939.9375 C257.70901246 945.36187731 251.42727448 950.20938331 245 955 C244.29311035 955.53141602 243.5862207 956.06283203 242.85791016 956.61035156 C166.3190919 1014.11709722 76.24280095 1051.19569304 -30 1064 C-31.07862305 1064.11714355 -32.15724609 1064.23428711 -33.26855469 1064.35498047 C-69.59292531 1068.13105421 -106.75112842 1067.00249964 -143 1063 C-144.56766113 1062.83975342 -144.56766113 1062.83975342 -146.16699219 1062.67626953 C-238.43204406 1053.17518455 -330.21950158 1015.41129987 -414.4921875 951.20800781 C-415.84164165 950.12687129 -417.20141646 949.05864625 -418.5625 947.9921875 C-426.27161088 941.93140625 -433.65542007 935.49403082 -441 929 C-441.51868652 928.54206055 -442.03737305 928.08412109 -442.57177734 927.61230469 C-450.62499514 920.45448283 -458.2474481 912.85440714 -465.875 905.25 C-466.37354492 904.75413391 -466.87208984 904.25826782 -467.38574219 903.74737549 C-473.14437531 898.01223053 -478.73947377 892.1987629 -484 886 C-484.97289779 884.88188881 -485.94682369 883.76467121 -486.921875 882.6484375 C-493.37453682 875.19907791 -499.61147002 867.61631321 -505.61572266 859.80078125 C-506.53654482 858.60290042 -507.46069099 857.40756727 -508.38818359 856.21484375 C-565.73127861 782.3883495 -601.66123399 693.03894468 -614.25 600.625 C-614.47659302 598.97298584 -614.47659302 598.97298584 -614.70776367 597.28759766 C-617.47365618 575.73142015 -618.37803987 554.23424955 -618.31785583 532.51256561 C-618.31241038 530.46632198 -618.31004681 528.42008993 -618.3079834 526.37384033 C-618.27613236 506.09581038 -617.66946106 486.12739119 -615 466 C-614.71847857 463.6706057 -614.43722909 461.34117853 -614.15625 459.01171875 C-607.86891487 409.36057057 -593.9321744 360.84568601 -574 315 C-573.3145675 313.39345803 -572.62964422 311.78669867 -571.9453125 310.1796875 C-567.57566081 300.02269911 -562.62312326 290.24053699 -557.359375 280.52001953 C-555.95432628 277.91532972 -554.57013175 275.30024333 -553.1875 272.68359375 C-540.33115477 248.52126538 -525.24287393 225.55749108 -508.359375 204.01171875 C-506.72304366 201.92295805 -505.10888718 199.82785957 -503.515625 197.70703125 C-498.85666603 191.52253241 -494.04223375 185.65979739 -488.71484375 180.0234375 C-486.37382843 177.49792886 -484.26910271 174.81713409 -482.1328125 172.1171875 C-476.51714413 165.21390544 -470.26024818 158.99483474 -463.94311523 152.73730469 C-461.93215361 150.74470242 -459.92941305 148.74411067 -457.92773438 146.7421875 C-451.78744803 140.61870781 -445.6370143 134.58916615 -439 129 C-437.85439019 127.99097774 -436.71115579 126.97925212 -435.5703125 125.96484375 C-358.36464963 57.91237211 -261.65111134 14.71468114 -151 -2 C-149.15740601 -2.25402588 -149.15740601 -2.25402588 -147.27758789 -2.51318359 C-137.5567766 -3.81555894 -127.85444563 -4.60566533 -118.0625 -5.125 C-117.29131836 -5.16669312 -116.52013672 -5.20838623 -115.72558594 -5.25134277 C-77.01806987 -7.30179711 -38.3157968 -6.09104074 0 0 Z " fill="#FEFEFE" transform="translate(618,10)"/>
<path d="M0 0 C349.59341133 0 349.59341133 0 370.5625 2.75 C371.24512909 2.83747498 371.92775818 2.92494995 372.631073 3.01507568 C404.19985264 7.07528439 435.10390105 14.32798565 464 28 C465.04148193 28.49064941 465.04148193 28.49064941 466.10400391 28.99121094 C470.79249854 31.22279069 475.41287016 33.56739451 480 36 C481.73636719 36.92039062 481.73636719 36.92039062 483.5078125 37.859375 C519.97669429 57.96294993 549.3626345 88.03818691 570 124 C570.36963867 124.63615234 570.73927734 125.27230469 571.12011719 125.92773438 C577.20920139 136.48962974 581.76667982 147.58286376 586 159 C586.28117676 159.75684082 586.56235352 160.51368164 586.85205078 161.29345703 C596.47055116 187.60339735 602.13794676 216.77508149 602.16796875 244.796875 C602.17129715 245.90693909 602.17462555 247.01700317 602.17805481 248.16070557 C602.18309366 250.50378001 602.18546408 252.84686155 602.18530273 255.18994141 C602.18746813 258.69836961 602.20559849 262.20647188 602.22460938 265.71484375 C602.27242107 284.38745275 601.37783006 302.87011438 597.875 321.25 C597.55849487 322.92461304 597.55849487 322.92461304 597.2355957 324.63305664 C588.66805684 367.68214598 569.23689133 409.71901257 538.52197266 441.42675781 C537.45278298 442.53196446 536.3905453 443.64391845 535.33349609 444.76074219 C521.25450904 459.61733635 505.4045608 471.31306467 488 482 C487.41186523 482.36432129 486.82373047 482.72864258 486.21777344 483.10400391 C469.91348158 493.11681253 452.1599704 500.15552798 434 506 C433.1145752 506.29116699 432.22915039 506.58233398 431.31689453 506.88232422 C406.71271232 514.88862033 381.07384469 519.44292038 355.24707031 520.7980957 C352.99695445 520.94779234 352.99695445 520.94779234 350.83372211 521.50510311 C347.34625543 522.11417356 343.94042668 522.13490261 340.41337585 522.12025452 C339.27990722 522.12153615 339.27990722 522.12153615 338.12354022 522.12284368 C335.5962519 522.12448834 333.06903023 522.11899372 330.54174805 522.11352539 C328.72822572 522.11324327 326.91470329 522.11340173 325.10118103 522.1139679 C320.18013645 522.11425491 315.25911622 522.10837354 310.33807731 522.10139394 C305.19444639 522.09514457 300.05081492 522.09455535 294.90718079 522.09336853 C285.16795091 522.09025989 275.42873224 522.08205278 265.68950731 522.07201904 C254.60133298 522.06084341 243.51315812 522.05534379 232.42497957 522.05032361 C209.61664682 522.0398698 186.80832404 522.02227938 164 522 C164.00227832 522.82474111 164.00227832 522.82474111 164.00460267 523.66614366 C164.09419654 556.28373203 164.16278738 588.90128772 164.20426132 621.51897086 C164.20926389 625.43907974 164.21444121 629.35918837 164.21972656 633.27929688 C164.2207758 634.05969022 164.22182505 634.84008357 164.22290608 635.64412519 C164.24029144 648.26518343 164.27181877 660.88616847 164.30861118 673.50718334 C164.34607273 686.46621893 164.36824685 699.4252163 164.37635398 712.38430381 C164.38183097 720.37496205 164.39910315 728.36541338 164.43166587 736.3560079 C164.45539287 742.49255407 164.45780672 748.62894387 164.45243073 754.76552963 C164.45352843 757.27609147 164.46144839 759.78666136 164.4768219 762.29717636 C164.49683715 765.7352053 164.49189645 769.17236183 164.48101807 772.6104126 C164.49266943 773.59488695 164.5043208 774.57936131 164.51632524 775.59366822 C164.41791011 787.16670599 160.66896699 797.02016616 152.875 805.5625 C142.86792202 815.18632818 130.02541957 816.40442389 116.7734375 816.36865234 C105.44149561 816.07632247 95.45926594 812.72234259 87 805 C78.89252283 796.05200684 75.86889494 782.90451833 75.87974548 771.0774231 C75.87768349 769.33594246 75.87768349 769.33594246 75.87557983 767.5592804 C75.88097275 765.67006111 75.88097275 765.67006111 75.88647461 763.74267578 C75.88675693 762.39205426 75.88659787 761.04143259 75.8860321 759.69081116 C75.88574588 756.03631079 75.8916143 752.38184343 75.89860606 748.72735071 C75.90486876 744.90367457 75.90544571 741.07999762 75.90663147 737.25631714 C75.90973619 730.02102756 75.917938 722.78575314 75.92798096 715.55047023 C75.93916878 707.31107036 75.94465927 699.07166976 75.94967639 690.83226418 C75.96012133 673.88816586 75.97845613 656.9440884 76 640 C62.8 640 49.6 640 36 640 C36.06305024 658.62943053 36.1383809 677.25868221 36.23571491 695.88796234 C36.28052992 704.53939082 36.31997685 713.19077945 36.34643555 721.84228516 C36.36953215 729.38986834 36.40305832 736.93732388 36.44870156 744.48480558 C36.4724779 748.4748592 36.49130805 752.46478763 36.49761391 756.45491028 C36.50373631 760.22410909 36.52398767 763.99298823 36.55427551 767.76206779 C36.56702034 769.77713656 36.56550556 771.79228047 36.5632782 773.80738831 C36.68631971 785.99605838 38.2260875 798.47845972 43.125 809.75 C43.41777832 810.44681885 43.71055664 811.1436377 44.01220703 811.86157227 C47.043904 818.71396258 51.27286087 824.2280211 56 830 C56.33 830.66 56.66 831.32 57 832 C38.19 832 19.38 832 0 832 C0 557.44 0 282.88 0 0 Z " fill="#000000" transform="translate(268,104)"/>
<path d="M0 0 C116.64800443 0 116.64800443 0 133.328125 16.07421875 C142.24289181 26.3428637 145.79771188 38.91663511 145.3828125 52.359375 C144.02923166 65.23220507 138.00123393 75.97933859 128.24609375 84.30859375 C126 86 126 86 123.28515625 87.47265625 C120.83615779 88.78668431 120.83615779 88.78668431 120.1875 91.1875 C120.125625 91.785625 120.06375 92.38375 120 93 C121.299375 93.226875 122.59875 93.45375 123.9375 93.6875 C135.61015488 96.35032439 144.97893549 104.53109045 152 114 C152.92835084 115.59512216 153.80596828 117.22108433 154.625 118.875 C155.02976562 119.67679688 155.43453125 120.47859375 155.8515625 121.3046875 C161.41717629 134.3668423 161.15590213 151.99134322 156.9375 165.4375 C150.46269657 181.46947808 140.90254158 190.8995536 125.4140625 198.22265625 C90.21525519 212.46463521 22.12204202 204 0 204 C0 136.68 0 69.36 0 0 Z " fill="#020202" transform="translate(467,739)"/>
<path d="M0 0 C47.52 0 95.04 0 144 0 C144 36 144 36 134 48 C130.35915612 52.68961364 130.35915612 52.68961364 126.75 57.40234375 C123.6109407 61.51889688 120.43085787 65.60320839 117.25 69.6875 C116.65735352 70.44885254 116.06470703 71.21020508 115.45410156 71.99462891 C114.24099583 73.55298309 113.02777893 75.11125075 111.81445312 76.66943359 C108.87486662 80.44517266 105.93752285 84.22265535 103 88 C101.83334461 89.50000877 100.66667793 91.00000876 99.5 92.5 C98.9225 93.2425 98.345 93.985 97.75 94.75 C92.5 101.5 92.5 101.5 90.74902344 103.7512207 C89.58556688 105.24711662 88.42215522 106.74304745 87.25878906 108.23901367 C84.29338002 112.05209776 81.32712738 115.86452064 78.359375 119.67578125 C72.43539616 127.28502993 66.5194972 134.89938846 60.66015625 142.55859375 C58.56863473 145.27978541 56.44194246 147.97164894 54.30859375 150.66015625 C53.66857422 151.47097656 53.02855469 152.28179688 52.36914062 153.1171875 C51.10371078 154.719127 49.83305622 156.3169563 48.55664062 157.91015625 C47.97978516 158.64234375 47.40292969 159.37453125 46.80859375 160.12890625 C46.29095459 160.77931885 45.77331543 161.42973145 45.23999023 162.09985352 C43.71616784 164.20861948 43.71616784 164.20861948 43 168 C76.66 168.33 110.32 168.66 145 169 C145 179.89 145 190.78 145 202 C95.83 202 46.66 202 -4 202 C-4 166 -4 166 1.375 157.0625 C4.71875 153.8671875 4.71875 153.8671875 6.41015625 152.42871094 C8.97761461 150.12146796 10.83277846 147.4717287 12.875 144.6875 C16.89111772 139.43813713 20.93815486 134.21406065 25 129 C29.01476809 123.84451434 33.02101091 118.68315684 37 113.5 C42.69469554 106.08386871 48.44087592 98.70801416 54.18554688 91.33056641 C57.70724229 86.80714008 61.22635958 82.28170674 64.74462891 77.75561523 C67.68231835 73.97700296 70.62317127 70.20093376 73.5703125 66.4296875 C77.0592549 61.96265741 80.53500182 57.48562638 84 53 C84.87277588 51.87174805 84.87277588 51.87174805 85.76318359 50.72070312 C87.45403173 48.52793609 89.1348613 46.3278831 90.8125 44.125 C91.32248535 43.46483887 91.8324707 42.80467773 92.35791016 42.12451172 C94.7301673 38.98748679 96.03101277 36.87594891 97 33 C64.99 33 32.98 33 0 33 C0 22.11 0 11.22 0 0 Z " fill="#000000" transform="translate(643,740)"/>
<path d="M0 0 C27.89662074 1.77121401 56.44526363 14.18539024 75.56640625 34.76171875 C97.71739162 61.03556095 105.47235105 93.41485564 105.3125 127.125 C105.31134186 127.88636261 105.31018372 128.64772522 105.30899048 129.43215942 C105.27186263 141.8200523 104.50585689 153.83764459 102 166 C101.7834375 167.09957031 101.566875 168.19914063 101.34375 169.33203125 C100.68208384 172.27408259 99.89156676 175.11926537 99 178 C98.80567383 178.62793457 98.61134766 179.25586914 98.41113281 179.90283203 C89.36788616 208.55329732 72.35285226 229.61572235 45.61572266 243.78955078 C38.63001039 247.3572814 31.50838647 249.7663223 24 252 C22.95199219 252.37253906 21.90398438 252.74507812 20.82421875 253.12890625 C18 254 18 254 14 254 C15.50316209 248.404097 17.03969457 242.82198522 18.68359375 237.265625 C22.78924846 223.27422955 25.86020983 209.41793123 28 195 C28.14421387 194.06526855 28.28842773 193.13053711 28.43701172 192.16748047 C38.26859416 128.12395523 30.1875976 60.90499383 0.8828125 2.85986328 C0 1 0 1 0 0 Z " fill="#FDFDFD" transform="translate(600,237)"/>
<path d="M0 0 C11.65139882 8.86773129 19.69000913 19.4941856 22.61328125 34.0546875 C24.61169626 49.2749392 20.96583315 63.51779286 12 76 C4.81587231 85.03058815 -5.77878949 91.36751256 -17 94 C-20.80220332 94.4221612 -24.55199428 94.47749355 -28.375 94.4375 C-29.39432617 94.42920166 -30.41365234 94.42090332 -31.46386719 94.41235352 C-38.6345842 94.25074207 -44.66802853 93.58811716 -51 90 C-51.9384375 89.47921875 -52.876875 88.9584375 -53.84375 88.421875 C-67.48567152 80.28072828 -74.89686574 69.4214502 -79.078125 54.1484375 C-82.21816548 41.14576021 -79.84714848 28.68251354 -73.390625 17.1171875 C-71.71645929 14.60593893 -69.95076755 12.30174246 -68 10 C-67.40445313 9.29359375 -66.80890625 8.5871875 -66.1953125 7.859375 C-49.10305581 -10.72224845 -21.06384129 -13.33948271 0 0 Z " fill="#010101" transform="translate(884,852)"/>
<path d="M0 0 C0.60328125 0.44859375 1.2065625 0.8971875 1.828125 1.359375 C2.49328125 1.84921875 3.1584375 2.3390625 3.84375 2.84375 C13.0309449 10.20753218 19.63528734 21.75987861 21.828125 33.359375 C22.92626008 50.19144555 19.75336005 64.48642639 8.578125 77.546875 C-1.31983021 88.02897183 -13.42551074 93.38483296 -27.80395508 93.90234375 C-36.2187906 93.96512346 -43.61257657 93.37447777 -51.171875 89.359375 C-52.04070312 88.90046875 -52.90953125 88.4415625 -53.8046875 87.96875 C-65.92728804 81.09324521 -74.52786271 71.75309045 -79.28515625 58.4453125 C-82.37596925 46.43547342 -82.04400177 31.25532608 -76.71875 19.9765625 C-74.21199549 15.73533644 -71.47965459 12.00766131 -68.171875 8.359375 C-67.59953125 7.67230469 -67.0271875 6.98523438 -66.4375 6.27734375 C-49.67180409 -12.45867967 -20.03850585 -13.63965524 0 0 Z " fill="#FDFDFD" transform="translate(390.171875,163.640625)"/>
<path d="M0 0 C12.931875 -0.1546875 12.931875 -0.1546875 26.125 -0.3125 C28.81672363 -0.35802002 31.50844727 -0.40354004 34.28173828 -0.45043945 C61.33490963 -0.71938687 61.33490963 -0.71938687 70.34179688 7.00952148 C77.708066 14.70415472 79.26338186 22.45857308 79.1484375 32.74609375 C78.75713801 41.32379039 75.83002804 48.36638365 69.5625 54.3125 C60.26296833 60.43658183 52.373592 61.29372277 41.50390625 61.1953125 C39.92216614 61.19229126 39.92216614 61.19229126 38.30847168 61.18920898 C34.39310314 61.17879465 30.47779691 61.15087226 26.5625 61.125 C17.796875 61.08375 9.03125 61.0425 0 61 C0 40.87 0 20.74 0 0 Z " fill="#FBFBFB" transform="translate(507,850)"/>
<path d="M0 0 C11.6015625 -0.12375 11.6015625 -0.12375 23.4375 -0.25 C27.0735022 -0.30462402 27.0735022 -0.30462402 30.78295898 -0.36035156 C32.72899493 -0.37204659 34.67504074 -0.38223648 36.62109375 -0.390625 C37.6114563 -0.41108887 38.60181885 -0.43155273 39.62219238 -0.45263672 C48.32124204 -0.45695654 55.6376687 1.82479609 62 8 C67.39529065 15.51486911 66.63009679 25.14314656 66 34 C64.46197596 39.95874455 61.09286154 43.57211242 56 47 C48.10730052 50.8418639 39.98189006 51.14965737 31.34765625 51.09765625 C30.54871948 51.09664917 29.74978271 51.09564209 28.92663574 51.09460449 C25.97190901 51.08941362 23.0172029 51.07545269 20.0625 51.0625 C10.1315625 51.0315625 10.1315625 51.0315625 0 51 C0 34.17 0 17.34 0 0 Z " fill="#FBFBFB" transform="translate(507,770)"/>
</svg>
